<?xml version="1.0" encoding="utf-8"?>
<!-- Svg Vector Icons : http://www.onlinewebfonts.com/icon -->
<!DOCTYPE svg PUBLIC "-//W3C//DTD SVG 1.1//EN" "http://www.w3.org/Graphics/SVG/1.1/DTD/svg11.dtd">
<svg version="1.1" xmlns="http://www.w3.org/2000/svg" xmlns:xlink="http://www.w3.org/1999/xlink" x="0px" y="0px" viewBox="0 0 1000 1000" enable-background="new 0 0 1000 1000" xml:space="preserve">
<metadata> Svg Vector Icons : http://www.onlinewebfonts.com/icon </metadata>
<g><path d="M463.4,653.7c-59.1-0.2-107.1,47.6-107.1,106.6c-0.2,59,47.6,107.1,106.6,107.2c59.1,0.2,107-47.6,107.1-106.6C570.2,701.8,522.4,653.8,463.4,653.7z M463,804.1c-24-0.1-43.5-19.6-43.4-43.6c0.1-24,19.6-43.5,43.6-43.4c24,0.1,43.4,19.6,43.4,43.6C506.5,784.8,487,804.2,463,804.1z M894.6,682.7c-53-0.2-95.9,42.6-96,95.4c-0.2,52.9,42.6,96,95.5,96c52.9,0.2,95.8-42.6,95.9-95.5C990.2,725.8,947.5,682.8,894.6,682.7z M894.3,817.6c-21.6,0-39.1-17.6-39.1-39.2c0-21.7,17.7-39.2,39.3-39c21.6,0,39.1,17.6,39,39.2C933.5,800.2,915.8,817.7,894.3,817.6z M921.7,456.1h-79.9V177.2c0-28.4-22.9-51.4-51.3-51.4H513.1c-32.4,0-52.7,21.3-57.5,51.4l-66,374.8h-62.4v-334c0-15.7-12.7-28.5-28.5-28.5h-8.9c-15.7,0-28.4,12.8-28.4,28.5V739l-224.6,4.6c-13.5,0-26.9,15.5-26.9,31.2c0,15.6,12.8,29.8,26.7,29.8l261.9,3.9c15.8,0,28.6-12.7,28.6-28.4V613h51.7l-8.4,47.7c24.4-22.6,56.9-36.5,92.6-36.5c36.9,0.1,71.1,14.4,96.8,40.2c25.7,25.8,39.8,60.2,39.7,96.6c0,15.9-2.9,31.1-8,45.3h127.2h52.5c-2.1-9.1-3.2-18.5-3.2-28.1c0.1-69.4,56.7-125.9,126.1-125.9c29.3,0,56.6,9.8,78.8,27.6l0-172.4C973.1,479.1,950.1,456.1,921.7,456.1z M780.9,452.1h-62.1c-37.9,0-68.7,30.8-68.7,68.7v38H456.4l61.1-371.7c0.1,0,263.4,0,263.4,0L780.9,452.1L780.9,452.1z"/></g>
</svg>