<svg version="1.1" id="Layer_1" xmlns="http://www.w3.org/2000/svg" xmlns:xlink="http://www.w3.org/1999/xlink" x="0px" y="0px"
	 viewBox="0 0 100 100" style="enable-background:new 0 0 100 100;" xml:space="preserve">
<g>
	<path d="M89,16H11c-1.11,0-2,0.9-2,2v8c0,1.1,0.89,2,2,2h78c1.1,0,2-0.9,2-2v-8C91,16.9,90.1,16,89,16z"/>
	<path d="M17,51c0,18.19,14.8,33,33,33c9.09,0,17.35-3.7,23.32-9.68C79.3,68.34,83,60.1,83,51V32H17V51z M35,53
		c0-8.27,6.73-15,15-15s15,6.73,15,15v10c0,8.27-6.73,15-15,15s-15-6.73-15-15V53z M25,38c1.1,0,2,0.89,2,2c0,1.1-0.9,2-2,2
		c-1.11,0-2-0.9-2-2C23,38.89,23.89,38,25,38z"/>
	<path d="M50,74c6.06,0,11-4.94,11-11V53c0-6.07-4.94-11-11-11c-6.07,0-11,4.93-11,11v10C39,69.06,43.93,74,50,74z M50,51
		c3.86,0,7,3.14,7,7s-3.14,7-7,7s-7-3.14-7-7S46.14,51,50,51z"/>
	<circle cx="50" cy="58" r="3"/>
</g>
</svg>
